<mxfile host="65bd71144e">
    <diagram id="HIP3nbAZw_EuaXWnEj3U" name="Page-1">
        <mxGraphModel dx="836" dy="890" grid="1" gridSize="10" guides="1" tooltips="1" connect="1" arrows="1" fold="1" page="1" pageScale="1" pageWidth="850" pageHeight="1100" math="0" shadow="0">
            <root>
                <mxCell id="0"/>
                <mxCell id="1" parent="0"/>
                <mxCell id="8" value="&lt;span style=&quot;background-color: rgb(13, 17, 23); color: rgb(230, 237, 243); font-family: Consolas, &amp;quot;Courier New&amp;quot;, monospace;&quot;&gt;&lt;font style=&quot;font-size: 31px;&quot;&gt;fahrenheit&lt;/font&gt;&lt;/span&gt;&amp;nbsp;= ______" style="text;html=1;align=center;verticalAlign=middle;resizable=0;points=[];autosize=1;strokeColor=none;fillColor=none;fontSize=36;" vertex="1" parent="1">
                    <mxGeometry y="220" width="370" height="60" as="geometry"/>
                </mxCell>
                <mxCell id="9" value="calculate" style="rounded=1;whiteSpace=wrap;html=1;fontSize=36;" vertex="1" parent="1">
                    <mxGeometry y="320" width="180" height="60" as="geometry"/>
                </mxCell>
                <mxCell id="12" value="&lt;h1&gt;&lt;div style=&quot;color: rgb(230, 237, 243); background-color: rgb(13, 17, 23); font-family: Consolas, &amp;quot;Courier New&amp;quot;, monospace; font-weight: normal; line-height: 19px;&quot;&gt;&lt;font style=&quot;font-size: 33px;&quot;&gt;fahrenheit to Celcuius calculator&lt;/font&gt;&lt;/div&gt;&lt;/h1&gt;" style="text;html=1;align=center;verticalAlign=middle;resizable=0;points=[];autosize=1;strokeColor=none;fillColor=none;" vertex="1" parent="1">
                    <mxGeometry y="80" width="680" height="70" as="geometry"/>
                </mxCell>
                <mxCell id="15" value="&lt;span style=&quot;color: rgb(66, 66, 66); font-family: Roboto, Helvetica, Arial, sans-serif; letter-spacing: 0.4px; text-align: start; background-color: rgb(255, 235, 59);&quot;&gt;&lt;font style=&quot;font-size: 30px;&quot;&gt;Celsius&lt;/font&gt;&lt;/span&gt;&amp;nbsp;= _____" style="text;html=1;align=center;verticalAlign=middle;resizable=0;points=[];autosize=1;strokeColor=none;fillColor=none;fontSize=33;" vertex="1" parent="1">
                    <mxGeometry y="440" width="250" height="50" as="geometry"/>
                </mxCell>
                <mxCell id="16" value="&lt;font color=&quot;#000000&quot;&gt;Image&lt;/font&gt;" style="rounded=0;whiteSpace=wrap;html=1;labelBackgroundColor=#FFFFFF;fontSize=30;" vertex="1" parent="1">
                    <mxGeometry x="500" y="250" width="280" height="310" as="geometry"/>
                </mxCell>
            </root>
        </mxGraphModel>
    </diagram>
</mxfile>